<?xml version="1.0" encoding="UTF-8" standalone="no"?>
<!-- Created with Inkscape (http://www.inkscape.org/) -->

<svg
   width="16"
   height="16"
   viewBox="0 0 16 16"
   version="1.1"
   id="svg1"
   xmlns="http://www.w3.org/2000/svg"
   xmlns:svg="http://www.w3.org/2000/svg">
  <defs
     id="defs1" />
  <g
     id="layer1">
    <path
       id="text1"
       style="font-size:7.84106px;font-family:'Palatino Linotype';-inkscape-font-specification:'Palatino Linotype';opacity:1;fill:#37b7c3;fill-opacity:1;stroke:#000000;stroke-width:0.1;stroke-dasharray:none"
       d="M 9.5273438,4.7483006 C 8.7460897,4.8837265 8.1129298,5.2040783 7.6269531,5.7066288 7.1430268,6.2088238 6.9003906,6.8144954 6.9003906,7.5239805 c 0,0.4654715 0.1089126,0.8478602 0.3242188,1.1488767 0.215306,0.3010157 0.5059907,0.5056673 0.8730468,0.6142873 0.3670459,0.1086196 0.7772029,0.1230887 1.2324219,0.044179 C 9.9226827,9.2285989 10.500653,9.0214513 11.0625,8.7087523 l 0.01758,-0.034297 c -0.02256,-0.2052435 -0.0332,-0.3959259 -0.0332,-0.5743225 0,-0.1578914 0.0035,-0.2923223 0.01172,-0.402422 0.01027,-0.1125096 0.01926,-0.1765816 0.02539,-0.1899481 0.0061,-0.013369 0.02754,-0.032999 0.06445,-0.061954 l 0.15039,-0.115913 0.01367,-0.039479 v -0.091797 l -0.03125,-0.019974 c -0.225559,0.051403 -0.396791,0.088313 -0.513672,0.1085734 -0.203003,0.035189 -0.465175,0.075263 -0.7871092,0.1208159 l -0.1875,0.026643 -0.029297,0.032422 v 0.1347656 l 0.029297,0.022265 c 0.2686202,-0.042463 0.4415132,-0.061688 0.5214842,-0.059146 0.08202,0.00219 0.13379,0.021735 0.154297,0.059191 C 10.489257,7.6595811 10.5,7.7595007 10.5,7.9214929 v 0.3398438 c 0,0.1989019 -0.0089,0.3324086 -0.02734,0.4012243 -0.11483,0.08142 -0.263009,0.1572148 -0.441406,0.2229996 C 9.854904,8.9489385 9.6819127,8.9949443 9.5117188,9.0244465 9.1200664,9.0923374 8.7776987,9.0607449 8.4824219,8.9294319 8.1871445,8.7981184 7.9606258,8.5841009 7.8027344,8.2874862 7.6448434,7.9888205 7.5644531,7.6494488 7.5644531,7.2721503 c 0,-0.3649953 0.073162,-0.707542 0.21875,-1.0301066 0.1476384,-0.3249703 0.3671244,-0.591392 0.65625,-0.797351 0.2891252,-0.2059589 0.6208456,-0.3419951 0.9960938,-0.4070423 0.1763457,-0.030569 0.3403506,-0.042881 0.4941406,-0.038781 0.1537905,0.00205 0.3072445,0.023702 0.4589845,0.063016 0.153788,0.036909 0.250196,0.066497 0.287109,0.090856 0.03693,0.022307 0.05832,0.041748 0.06445,0.05914 0.0082,0.01703 0.01535,0.078211 0.02149,0.1837757 l 0.01563,0.3234634 0.02344,0.021328 0.142578,-0.024715 0.02344,-0.025547 c 0.04921,-0.4473446 0.09199,-0.7437952 0.128906,-0.8875796 l -0.02148,-0.029479 C 10.616949,4.6575914 10.101494,4.6487749 9.5273438,4.7483006 Z M 2.3125,6.0887968 2.2988281,6.1028855 1.2597656,6.2830011 C 1.0838275,6.313499 0.94335938,6.4802697 0.94335938,6.6562077 c 0,0.1502071 0.10275532,0.255668 0.24218752,0.2646588 0.023772,-0.00981 0.048622,-0.016241 0.074219,-0.020678 L 2.8046875,6.6323852 c 0.026464,-0.00459 0.051595,-0.00525 0.076172,-0.00344 0.00254,-0.00103 0.00531,-0.0022 0.00781,-0.00331 3.69e-5,0.00112 -3.62e-5,0.00279 0,0.00391 0.1346982,0.013747 0.234375,0.1194589 0.234375,0.266013 0,0.1436341 -0.095974,0.2816242 -0.2265625,0.3439608 v 0.017578 c -0.015297,-0.00187 -0.032351,1.585e-4 -0.048828,6.515e-4 -0.01395,0.00428 -0.028505,0.00885 -0.042969,0.011355 l -0.5625,0.097506 C 2.1032697,7.4249253 2,7.5676383 2,7.7171856 2,7.8931237 2.1424213,8.0108571 2.3183594,7.9803592 L 2.8046875,7.896057 c 0.032386,-0.00561 0.064358,-0.017852 0.09375,-0.031876 V 7.879806 L 3.0214844,7.858477 c 0.1759381,-0.030498 0.3164062,0.087574 0.3164062,0.2635121 0,0.175938 -0.1404681,0.3407556 -0.3164062,0.3712535 l -1.5449219,0.267803 c -0.024912,0.00432 -0.049006,0.00602 -0.072266,0.00471 L 0.98046875,8.8392282 C 0.80453062,8.869726 0.66210938,9.0368353 0.66210938,9.2127733 c 0,0.175938 0.14242124,0.2917184 0.31835937,0.2612205 L 1.2441406,9.4282878 c 0.035268,-0.024786 0.073583,-0.043707 0.1152344,-0.055131 0.010702,-0.00294 0.020254,-0.00351 0.03125,-0.00542 l 0.3945312,-0.06839 c 0.053464,-0.00927 0.1042196,-0.00591 0.1484376,0.00943 L 2.5253906,9.2061903 c 0.035267,-0.024786 0.073583,-0.043707 0.1152344,-0.055131 0.010702,-0.00294 0.022207,-0.00385 0.033203,-0.00576 l 0.3945313,-0.06839 c 0.1759381,-0.030498 0.3164062,0.085621 0.3164062,0.2615591 0,0.175938 -0.1404681,0.3427088 -0.3164062,0.3732066 L 2.673828,9.780065 c -0.024912,0.00432 -0.049006,0.00608 -0.072266,0.00471 l -0.21875,0.037919 c -0.1759381,0.030498 -0.3164063,0.195316 -0.3164063,0.371254 0,0.175938 0.1404682,0.29401 0.3164063,0.263512 l 0.6835937,-0.118497 c 0.051936,-0.009 0.1013342,-0.0308 0.1445313,-0.06021 0.08076,-0.01378 0.1849945,-0.0301 0.3222656,-0.05 0.3506416,-0.04848 0.530763,-0.07247 0.5410157,-0.07425 l 0.025391,-0.02979 V 9.9704178 L 4.0742188,9.9572409 C 3.8568622,9.9867131 3.7213803,9.9995536 3.6660156,9.9947975 3.6106512,9.9879953 3.5712866,9.975183 3.5507812,9.956179 3.5323267,9.936822 3.5180652,9.8927989 3.5078125,9.8269086 3.4975625,9.7610178 3.4922877,9.6140448 3.4902344,9.3826901 L 3.4863281,8.7818047 V 8.1275078 c 1.0539752,0.7810508 1.6515792,1.2268099 1.7910157,1.337975 0.141487,0.1108092 0.3055887,0.2374788 0.4921874,0.381479 0.2563169,-0.052631 0.4221771,-0.084901 0.4980469,-0.098052 0.1271332,-0.022038 0.2502096,-0.039854 0.3691407,-0.05227 l 0.021484,-0.027162 V 9.5405718 L 6.6367188,9.5189053 C 6.5239396,9.534353 6.4490194,9.533078 6.4121094,9.5148713 6.3772502,9.4963074 6.21139,9.3753149 5.9140625,9.1500331 L 4.0625,7.7561473 5.3066406,6.4037638 C 5.4809362,6.2136088 5.6362465,6.0510099 5.7695312,5.9192274 5.9048665,5.7850389 6.0064534,5.7033531 6.0761719,5.6707605 c 0.069718,-0.034641 0.1999252,-0.069812 0.390625,-0.102869 l 0.025391,-0.027839 v -0.144531 l -0.03125,-0.021927 C 6.1779636,5.4288001 6.01562,5.4586005 5.9746094,5.4657095 5.7900612,5.4976999 5.6206845,5.5235437 5.4648438,5.5423558 l -0.03125,0.030808 V 5.7723822 C 5.4048863,5.8204197 5.3157047,5.932191 5.1660156,6.1078279 L 4.5996094,6.7724174 C 4.372,7.0394816 4.0010125,7.4497718 3.4863281,8.0044609 V 7.3579766 l 0.00586,-0.708047 c 0,-0.1476385 0.00537,-0.2626598 0.015625,-0.3464585 0.012303,-0.086205 0.035453,-0.1437458 0.070312,-0.1723446 0.034859,-0.028598 0.090146,-0.054299 0.1660156,-0.075653 0.07792,-0.02171 0.1885912,-0.046169 0.3300782,-0.074795 l 0.025391,-0.025886 V 5.8004959 L 4.0742188,5.7834128 C 3.5554333,5.8897453 3.2611245,5.9497487 3.1914062,5.961834 3.1377192,5.971144 2.9860368,5.991562 2.8496094,6.011317 c -0.014531,4.989e-4 -0.029818,0.00126 -0.044922,0.00388 l -0.109375,0.01896 z M 11.650391,4.470126 11.625,4.4960118 v 0.1542969 l 0.02539,0.017083 c 0.217354,-0.029475 0.352836,-0.042313 0.408203,-0.037557 0.05537,0.00476 0.09288,0.016032 0.111328,0.035389 0.02051,0.019001 0.03477,0.063024 0.04297,0.1292703 0.01023,0.065894 0.01551,0.2147221 0.01758,0.4481248 l 0.0078,0.5982553 v 1.3203124 c 0,0.3526921 -0.0071,0.6553674 -0.02148,0.908021 -0.01231,0.2522986 -0.02481,0.3864319 -0.03711,0.402917 -0.01231,0.016487 -0.08185,0.067713 -0.208985,0.155367 l -0.02539,0.035651 V 8.764705 l 0.02539,0.020989 c 0.213255,-0.053371 0.4219,-0.098525 0.626953,-0.1340694 L 13.496087,8.5017449 C 14.129702,8.3919113 14.639689,8.3107371 15.02929,8.255504 l 0.02539,-0.029792 c 0,-0.1455876 0.009,-0.3380112 0.02539,-0.5766668 0.01845,-0.2390104 0.03437,-0.4004998 0.05078,-0.4853651 l -0.02148,-0.019713 -0.150391,0.026069 -0.02734,0.028177 c -0.0021,0.029064 -0.0253,0.1401498 -0.06836,0.3321623 -0.04101,0.1916545 -0.07119,0.3145907 -0.09375,0.3697666 -0.11483,0.067069 -0.236245,0.1184936 -0.361328,0.152478 -0.123033,0.033629 -0.433263,0.092682 -0.933594,0.1794114 l -0.628906,0.1090173 -0.01563,-0.5285415 c -0.0041,-0.1346192 -0.0059,-0.3734394 -0.0059,-0.7138281 v -1.359375 l 0.0059,-0.7080469 c 0,-0.1476385 0.0054,-0.2626598 0.01563,-0.3464585 0.0123,-0.086204 0.03741,-0.1440843 0.07227,-0.1726832 0.03486,-0.028598 0.09015,-0.054299 0.166015,-0.075653 0.07792,-0.02171 0.186639,-0.045831 0.328125,-0.074457 L 13.4375,4.336122 V 4.1818251 l -0.02539,-0.017083 c -0.518785,0.1063325 -0.813094,0.1663359 -0.882812,0.1784211 -0.07792,0.013507 -0.370373,0.055216 -0.878907,0.1269628 z M 0.88671875,7.5918074 C 0.7107806,7.6223053 0.56835938,7.7894145 0.56835938,7.9653525 c 0,0.1759381 0.14242122,0.2936715 0.31835937,0.2631736 L 1.4765625,8.12628 1.5605469,8.1117218 C 1.736485,8.0812239 1.8789063,7.9141146 1.8789062,7.7381766 c 0,-0.1495473 -0.1032697,-0.2564579 -0.2421874,-0.2666119 l -0.3769532,0.065343 c -0.027832,0.00482 -0.054437,0.00637 -0.080078,0.00412 z M 0.64453125,10.124024 C 0.47626943,10.161665 0.34375,10.322129 0.34375,10.492569 c 0,0.175938 0.14242128,0.293671 0.31835938,0.263173 l 0.22460937,-0.03894 C 1.0626568,10.686309 1.2050781,10.5192 1.2050781,10.343262 c 0,-0.175938 -0.1424213,-0.291718 -0.31835935,-0.26122 l -0.22460937,0.03893 c -0.005498,9.53e-4 -0.0121503,0.0018 -0.0175781,0.003 z M 1.5878906,9.9683101 c -0.1439409,0.055079 -0.2519531,0.1990069 -0.2519531,0.3522679 0,0.175938 0.1404682,0.29401 0.3164063,0.263513 l 0.00195,-3.39e-4 c 0.1759381,-0.0305 0.3183594,-0.197607 0.3183593,-0.373545 0,-0.151747 -0.1060259,-0.2586098 -0.2480468,-0.2655964 z" />
  </g>
</svg>
