<?xml version="1.0" encoding="UTF-8" standalone="no"?>
<!-- Created with Inkscape (http://www.inkscape.org/) -->

<svg
   width="101.92956"
   height="83.258804"
   viewBox="0 0 101.92956 83.258804"
   version="1.1"
   id="svg1"
   xmlns:xlink="http://www.w3.org/1999/xlink"
   xmlns="http://www.w3.org/2000/svg"
   xmlns:svg="http://www.w3.org/2000/svg">
  <defs
     id="defs1">
    <linearGradient
       id="linearGradient12">
      <stop
         style="stop-color:#4d4d4d;stop-opacity:1;"
         offset="0"
         id="stop13" />
      <stop
         style="stop-color:#000000;stop-opacity:0.970339;"
         offset="0.43026319"
         id="stop15" />
      <stop
         style="stop-color:#002929;stop-opacity:1;"
         offset="0.50921053"
         id="stop14" />
      <stop
         style="stop-color:#001818;stop-opacity:1;"
         offset="1"
         id="stop12" />
    </linearGradient>
    <linearGradient
       xlink:href="#linearGradient12"
       id="linearGradient13"
       x1="137.43855"
       y1="17.369816"
       x2="58.221119"
       y2="81.518837"
       gradientUnits="userSpaceOnUse"
       spreadMethod="pad"
       gradientTransform="matrix(1,-0.14497305,0,1,0,14.182693)" />
  </defs>
  <g
     id="layer1"
     transform="translate(-46.862967,-7.5534744)">
    <path
       id="text1"
       style="font-style:normal;font-variant:normal;font-weight:normal;font-stretch:normal;font-size:96px;line-height:0.3;font-family:Lato;-inkscape-font-specification:Lato;text-align:start;writing-mode:lr-tb;direction:ltr;text-anchor:start;opacity:1;mix-blend-mode:darken;fill:url(#linearGradient13);fill-rule:nonzero;stroke:#1a1a1a;stroke-width:0.11"
       d="m 89.744141,15.867523 v 0.03906 l -20.041016,2.905408 c -2.168669,0.314398 -3.914063,2.314781 -3.914063,4.483449 10e-7,1.753024 1.147855,3.044927 2.730469,3.317046 l 22.060547,-3.198185 c 2.168668,-0.314398 3.916016,1.177678 3.916016,3.346346 0,2.168668 -1.747348,4.169334 -3.916016,4.483732 L 79.761719,32.81275 c -1.582614,0.730992 -2.730469,2.355712 -2.730469,4.108735 0,1.753024 1.147855,3.044927 2.730469,3.317047 l 10.818359,-1.568371 c 2.168668,-0.314398 3.916016,1.179629 3.916016,3.348298 0,2.168668 -1.747348,4.167382 -3.916016,4.48178 l -0.835937,0.121188 -20.041016,2.905408 -16.060547,2.328346 c -2.168668,0.314398 -3.914062,2.312827 -3.914062,4.481495 0,2.168669 1.745394,3.661028 3.914062,3.34663 l 14.830078,-2.149962 c 0.387042,-0.183504 0.799654,-0.315147 1.230469,-0.377603 l 20.876953,-3.026596 c 2.168668,-0.314398 3.916016,1.177678 3.916016,3.346346 0,2.168666 -1.747348,4.167381 -3.916016,4.481779 l -20.876953,3.026596 c -0.432992,0.06277 -0.847605,0.05034 -1.236328,-0.02194 l -9.001953,1.30504 c -2.168669,0.314399 -3.914063,2.314781 -3.914063,4.48345 0,2.168667 1.745394,3.661027 3.914063,3.346628 l 10.238281,-1.484274 20.041016,-2.905408 0.835937,-0.121188 c 2.168668,-0.314398 3.916016,1.177677 3.916016,3.346346 0,2.168668 -1.747348,4.167381 -3.916016,4.481779 l -0.835937,0.121188 -16.025391,2.32325 c -2.168669,0.314399 -3.916016,2.315064 -3.916016,4.483733 0,2.168668 1.747347,3.660744 3.916016,3.346345 l 16.861328,-2.444438 c 0.187988,-0.02725 0.371962,-0.07151 0.552734,-0.123101 L 102.65625,83.45069 V 52.923351 l 4.07813,-0.591219 c 1.47199,-0.213399 2.6082,-0.185947 3.4082,0.08207 0.8,0.236021 1.52015,0.723009 2.16015,1.462226 l 19.63282,22.786583 c 0.512,0.757774 1.13509,1.307365 1.87109,1.648665 0.768,0.30466 1.92103,0.344549 3.45703,0.121871 L 148.6875,76.777404 124.5918,47.774537 c -0.8,-0.972021 -1.6321,-1.746889 -2.4961,-2.325633 -0.832,-0.583382 -1.77603,-0.991336 -2.83203,-1.222245 0.768,-0.495339 1.48816,-1.096024 2.16016,-1.801446 0.672,-0.705421 1.37533,-1.559244 2.11133,-2.561945 L 146.91211,7.6265848 135.77539,9.2411091 c -1.344,0.1948437 -2.46337,0.5661212 -3.35937,1.1120179 -0.864,0.509257 -1.6961,1.333217 -2.4961,2.473195 l -19.15234,27.016807 c -0.576,0.819505 -1.26445,1.462171 -2.06446,1.93015 -0.79998,0.435976 -1.80743,0.742498 -3.02343,0.918785 l -3.02344,0.438318 V 13.995616 Z m -38.910157,5.679984 c -2.168669,0.314399 -3.916015,2.315065 -3.916015,4.483733 0,2.168669 1.747346,3.660744 3.916015,3.346345 l 0.369141,-0.05352 c 0.388723,-0.184986 0.803336,-0.317634 1.236328,-0.380406 l 9.615235,-1.39395 c 1.582613,-0.730991 2.730468,-2.35571 2.730468,-4.108734 0,-2.168668 -1.745394,-3.662981 -3.914062,-3.348583 z m 0.208985,15.168922 c -1.68106,0.683377 -2.919922,2.37199 -2.919922,4.194794 0,2.168668 1.745394,3.661028 3.914062,3.34663 l 16.261719,-2.357511 c 2.168669,-0.314399 3.914063,-2.312829 3.914063,-4.481497 0,-1.554029 -0.902984,-2.74796 -2.208985,-3.191476 l -17.564453,2.546373 c -0.493141,0.07149 -0.962662,0.04491 -1.396484,-0.05731 z m 1.796875,46.169189 c -2.168668,0.314398 -3.914063,2.31478 -3.914063,4.483449 0,2.168668 1.745395,3.661027 3.914063,3.346629 l 10.238281,-1.484275 c 2.168669,-0.314399 3.914063,-2.312828 3.914063,-4.481496 0,-2.168669 -1.745394,-3.662981 -3.914063,-3.348582 z" />
  </g>
</svg>
